<svg width="24" height="25" viewBox="0 0 24 25" fill="none" xmlns="http://www.w3.org/2000/svg">
<path d="M7.70711 5.79289C7.31658 5.40237 6.68342 5.40237 6.29289 5.79289C5.90237 6.18342 5.90237 6.81658 6.29289 7.20711L11.2929 12.2071C11.6834 12.5976 12.3166 12.5976 12.7071 12.2071L17.7071 7.20711C18.0976 6.81658 18.0976 6.18342 17.7071 5.79289C17.3166 5.40237 16.6834 5.40237 16.2929 5.79289L12 10.0858L7.70711 5.79289Z" fill="white"/>
<path d="M7.70711 12.7929C7.31658 12.4024 6.68342 12.4024 6.29289 12.7929C5.90237 13.1834 5.90237 13.8166 6.29289 14.2071L11.2929 19.2071C11.6834 19.5976 12.3166 19.5976 12.7071 19.2071L17.7071 14.2071C18.0976 13.8166 18.0976 13.1834 17.7071 12.7929C17.3166 12.4024 16.6834 12.4024 16.2929 12.7929L12 17.0858L7.70711 12.7929Z" fill="white"/>
</svg>
