<svg width="24" height="25" viewBox="0 0 24 25" fill="none" xmlns="http://www.w3.org/2000/svg">
<path d="M12.7071 5.79289C12.3166 5.40237 11.6834 5.40237 11.2929 5.79289L6.29289 10.7929C5.90237 11.1834 5.90237 11.8166 6.29289 12.2071C6.68342 12.5976 7.31658 12.5976 7.70711 12.2071L12 7.91421L16.2929 12.2071C16.6834 12.5976 17.3166 12.5976 17.7071 12.2071C18.0976 11.8166 18.0976 11.1834 17.7071 10.7929L12.7071 5.79289Z" fill="white"/>
<path d="M17.7071 17.7929L12.7071 12.7929C12.3166 12.4024 11.6834 12.4024 11.2929 12.7929L6.29289 17.7929C5.90237 18.1834 5.90237 18.8166 6.29289 19.2071C6.68342 19.5976 7.31658 19.5976 7.70711 19.2071L12 14.9142L16.2929 19.2071C16.6834 19.5976 17.3166 19.5976 17.7071 19.2071C18.0976 18.8166 18.0976 18.1834 17.7071 17.7929Z" fill="white"/>
</svg>
