<svg width="20" height="20" viewBox="0 0 20 20" fill="none" xmlns="http://www.w3.org/2000/svg">
<path d="M9.99984 14.1665C10.2359 14.1665 10.434 14.0865 10.594 13.9265C10.754 13.7665 10.8337 13.5687 10.8332 13.3332C10.8326 13.0976 10.7526 12.8998 10.5932 12.7398C10.4337 12.5798 10.2359 12.4998 9.99984 12.4998C9.76373 12.4998 9.56595 12.5798 9.4065 12.7398C9.24706 12.8998 9.16706 13.0976 9.1665 13.3332C9.16595 13.5687 9.24595 13.7668 9.4065 13.9273C9.56706 14.0879 9.76484 14.1676 9.99984 14.1665ZM9.99984 10.8332C10.2359 10.8332 10.434 10.7532 10.594 10.5932C10.754 10.4332 10.8337 10.2354 10.8332 9.99984V6.6665C10.8332 6.43039 10.7532 6.23262 10.5932 6.07317C10.4332 5.91373 10.2354 5.83373 9.99984 5.83317C9.76428 5.83262 9.5665 5.91262 9.4065 6.07317C9.2465 6.23373 9.1665 6.4315 9.1665 6.6665V9.99984C9.1665 10.2359 9.2465 10.434 9.4065 10.594C9.5665 10.754 9.76428 10.8337 9.99984 10.8332ZM9.99984 18.3332C8.84706 18.3332 7.76373 18.1143 6.74984 17.6765C5.73595 17.2387 4.854 16.6451 4.10401 15.8957C3.35401 15.1462 2.76039 14.2643 2.32317 13.2498C1.88595 12.2354 1.66706 11.1521 1.6665 9.99984C1.66595 8.84762 1.88484 7.76428 2.32317 6.74984C2.76151 5.73539 3.35512 4.85345 4.10401 4.104C4.85289 3.35456 5.73484 2.76095 6.74984 2.32317C7.76484 1.88539 8.84817 1.6665 9.99984 1.6665C11.1515 1.6665 12.2348 1.88539 13.2498 2.32317C14.2648 2.76095 15.1468 3.35456 15.8957 4.104C16.6446 4.85345 17.2384 5.73539 17.6773 6.74984C18.1162 7.76428 18.3348 8.84762 18.3332 9.99984C18.3315 11.1521 18.1126 12.2354 17.6765 13.2498C17.2404 14.2643 16.6468 15.1462 15.8957 15.8957C15.1446 16.6451 14.2626 17.239 13.2498 17.6773C12.2371 18.1157 11.1537 18.3343 9.99984 18.3332Z" fill="#7A64E4"/>
</svg>
