<svg width="120" height="120" viewBox="0 0 120 120" fill="none" xmlns="http://www.w3.org/2000/svg">
<g clip-path="url(#clip0_2734_1486)">
<path d="M59.9977 0.00774947C41.8929 0.00774947 24.9064 7.43651 15.0198 19.1147C4.79609 30.6262 0 45.4243 0 60.0005C0 74.5856 4.80171 89.3913 15.0382 100.906C15.049 100.917 15.0501 100.92 15.0566 100.927C27.5759 114.639 44.4472 119.995 59.9982 119.995C79.0188 119.978 95.4055 111.779 104.958 100.906L104.968 100.895C115.2 89.3819 120 74.5796 120 59.9978C120 45.4125 115.199 30.6052 104.962 19.0908C104.95 19.0767 104.937 19.0638 104.924 19.0497C91.9537 5.2178 75.5929 0.00537109 60.0012 0.00537109L59.9977 0.00774947ZM59.9977 29.3594C71.4903 29.3594 78.1086 33.0671 83.0241 38.5964C87.875 44.053 90.648 51.9445 90.648 60.0027C90.648 68.0608 87.8749 75.952 83.0241 81.4085C78.1086 86.9377 71.4902 90.6476 59.9977 90.6476C48.5053 90.6476 41.8881 86.9377 36.9724 81.4085C32.1218 75.9522 29.3486 68.0609 29.3486 60.0027C29.3486 51.9443 32.1216 44.0529 36.9724 38.5964C41.8881 33.0671 48.5053 29.3594 59.9977 29.3594Z" fill="#34AFF7"/>
</g>
<defs>
<clipPath id="clip0_2734_1486">
<rect width="120" height="120" fill="white"/>
</clipPath>
</defs>
</svg>
