<svg width="120" height="120" viewBox="0 0 120 120" fill="none" xmlns="http://www.w3.org/2000/svg">
<g clip-path="url(#clip0_2734_1489)">
<path fill-rule="evenodd" clip-rule="evenodd" d="M103.761 120C99.6133 120 95.4657 118.383 92.3023 115.219L59.9648 82.9523L27.6977 115.219C21.3708 121.546 11.0369 121.546 4.71001 115.219C-1.61688 108.893 -1.61688 98.629 4.71001 92.3021L37.0474 59.9646L4.71001 27.6975C-5.34271 17.5745 1.68716 -0.00020742 16.239 -0.00020742C20.5272 -0.00020742 24.6046 1.68696 27.6977 4.70981L59.9648 37.0472L92.3023 4.70981C102.425 -5.34291 120 1.68696 120 16.2388C120 20.527 118.313 24.6044 115.22 27.6975L82.9525 59.9646L115.22 92.3021C125.413 102.495 118.172 120 103.761 120Z" fill="#FF5252"/>
</g>
<defs>
<clipPath id="clip0_2734_1489">
<rect width="120" height="120" fill="white"/>
</clipPath>
</defs>
</svg>
