<svg fill="none" height="512" viewBox="0 0 20 20" width="512" xmlns="http://www.w3.org/2000/svg" xmlns:xlink="http://www.w3.org/1999/xlink"><linearGradient id="paint0_linear_3139_120" gradientUnits="userSpaceOnUse" x1="10" x2="10" y1="0" y2="20"><stop offset="0" stop-color="#ee9ae5"/><stop offset="1" stop-color="#5961f9"/></linearGradient><path clip-rule="evenodd" d="m10 0c5.5138 0 10 4.48625 10 10 0 5.5138-4.4862 10-10 10-5.51375 0-10-4.4862-10-10 0-5.51375 4.48625-10 10-10zm6.2406 15.0001c-1.4675 1.8278-3.7198 2.9999-6.2406 2.9999-2.52085 0-4.77324-1.1722-6.24069-3.0001 1.46746-1.8278 3.71979-2.9999 6.24057-2.9999 2.52082 0 4.77322 1.1722 6.24072 3.0001zm-6.2406-5.0001c1.6569 0 3-1.34315 3-3s-1.3431-3-3-3c-1.65685 0-3 1.34315-3 3s1.34315 3 3 3z" fill="url(#paint0_linear_3139_120)" fill-rule="evenodd"/></svg>